<svg width="24" height="24" viewBox="0 0 24 24" fill="none" xmlns="http://www.w3.org/2000/svg">
<g clip-path="url(#clip0_49_352)">
<path d="M14.707 5.63634L20.364 11.2933C20.5515 11.4809 20.6568 11.7352 20.6568 12.0003C20.6568 12.2655 20.5515 12.5198 20.364 12.7073L14.707 18.3643C14.5184 18.5465 14.2658 18.6473 14.0036 18.645C13.7414 18.6427 13.4906 18.5376 13.3052 18.3522C13.1198 18.1668 13.0146 17.9159 13.0123 17.6537C13.01 17.3915 13.1108 17.1389 13.293 16.9503L17.243 13.0003H4C3.73478 13.0003 3.48043 12.895 3.29289 12.7074C3.10536 12.5199 3 12.2656 3 12.0003C3 11.7351 3.10536 11.4808 3.29289 11.2932C3.48043 11.1057 3.73478 11.0003 4 11.0003H17.243L13.293 7.05034C13.1975 6.9581 13.1213 6.84775 13.0689 6.72575C13.0165 6.60374 12.9889 6.47252 12.9877 6.33974C12.9866 6.20696 13.0119 6.07529 13.0622 5.95239C13.1125 5.82949 13.1867 5.71784 13.2806 5.62395C13.3745 5.53006 13.4861 5.4558 13.609 5.40552C13.7319 5.35524 13.8636 5.32994 13.9964 5.33109C14.1292 5.33225 14.2604 5.35983 14.3824 5.41224C14.5044 5.46465 14.6148 5.54083 14.707 5.63634Z" fill="black"/>
</g>
<defs>
<clipPath id="clip0_49_352">
<rect width="24" height="24" fill="white"/>
</clipPath>
</defs>
</svg>
