<svg width="25" height="24" viewBox="0 0 25 24" fill="none" xmlns="http://www.w3.org/2000/svg">
<g clip-path="url(#clip0_18_363)">
<path fill-rule="evenodd" clip-rule="evenodd" d="M11.621 20.615C11.3462 20.4455 11.0614 20.2928 10.768 20.158C10.035 19.819 9.05698 19.5 7.99998 19.5C6.72098 19.5 5.56199 19.968 4.81998 20.362C4.5858 20.4846 4.32477 20.547 4.06045 20.5435C3.79613 20.54 3.53684 20.4708 3.30598 20.342C3.06353 20.2113 2.86074 20.0177 2.71891 19.7816C2.57709 19.5454 2.50147 19.2754 2.49998 19V6.5C2.49998 5.879 2.79498 5.237 3.39798 4.871C4.17198 4.401 5.91398 3.5 7.99998 3.5C9.58098 3.5 11.145 4.01 12.5 4.81C13.855 4.01 15.419 3.5 17 3.5C19.086 3.5 20.828 4.4 21.602 4.871C22.205 5.237 22.5 5.879 22.5 6.5V19C22.5 19.633 22.121 20.106 21.694 20.342C21.463 20.4709 21.2035 20.5403 20.939 20.5438C20.6745 20.5473 20.4133 20.4848 20.179 20.362C19.438 19.968 18.279 19.5 17 19.5C15.943 19.5 14.965 19.82 14.232 20.158C13.9386 20.2928 13.6538 20.4455 13.379 20.615C13.095 20.792 12.855 21 12.501 21C12.145 21 11.906 20.792 11.621 20.615ZM4.49998 18.294V6.542C5.17298 6.142 6.49998 5.5 7.99998 5.5C9.22998 5.5 10.448 5.918 11.5 6.542V18.294C10.615 17.898 9.38698 17.5 7.99998 17.5C6.61898 17.5 5.39098 17.895 4.49998 18.294ZM13.5 18.294C14.385 17.898 15.613 17.5 17 17.5C18.381 17.5 19.609 17.895 20.5 18.294V6.542C19.827 6.142 18.5 5.5 17 5.5C15.77 5.5 14.552 5.918 13.5 6.542V18.294Z" fill="white"/>
</g>
<defs>
<clipPath id="clip0_18_363">
<rect width="24" height="24" fill="white" transform="translate(0.5)"/>
</clipPath>
</defs>
</svg>
