<svg width="100" height="101" viewBox="0 0 100 101" fill="none" xmlns="http://www.w3.org/2000/svg">
<g opacity="0.5" clip-path="url(#clip0_32_240)">
<path d="M54.1667 12.894C56.2691 12.8934 58.294 13.6874 59.8356 15.1169C61.3772 16.5465 62.3215 18.5059 62.4792 20.6024L62.5 21.2274V87.894H37.5V21.2274C37.4993 19.125 38.2934 17.1 39.7229 15.5584C41.1524 14.0168 43.1119 13.0726 45.2083 12.9149L45.8333 12.894H54.1667ZM83.3333 33.7274C85.5435 33.7274 87.6631 34.6054 89.2259 36.1682C90.7887 37.731 91.6667 39.8506 91.6667 42.0607V79.5607C91.6667 81.7708 90.7887 83.8905 89.2259 85.4533C87.6631 87.0161 85.5435 87.894 83.3333 87.894H70.8333V33.7274H83.3333ZM29.1667 46.2274V87.894H16.6667C14.4565 87.894 12.3369 87.0161 10.7741 85.4533C9.2113 83.8905 8.33333 81.7708 8.33333 79.5607V54.5607C8.33333 52.3506 9.2113 50.231 10.7741 48.6682C12.3369 47.1054 14.4565 46.2274 16.6667 46.2274H29.1667Z" fill="#3C3C3C"/>
</g>
<defs>
<clipPath id="clip0_32_240">
<rect width="100" height="100" fill="white" transform="translate(0 0.394043)"/>
</clipPath>
</defs>
</svg>
