<svg width="28" height="28" viewBox="0 0 28 28" fill="none" xmlns="http://www.w3.org/2000/svg">
<g clip-path="url(#clip0_18_371)">
<path fill-rule="evenodd" clip-rule="evenodd" d="M15.4373 1.58678C16.1747 0.702444 17.6108 1.30678 17.4942 2.45244L16.6705 10.5001H23.3333C23.555 10.5002 23.7721 10.5634 23.9591 10.6824C24.1462 10.8014 24.2954 10.9712 24.3894 11.172C24.4835 11.3728 24.5183 11.5962 24.49 11.816C24.4616 12.0359 24.3712 12.2431 24.2293 12.4134L12.5627 26.4134C11.8253 27.2978 10.3892 26.6934 10.5058 25.5478L11.3295 17.5001H4.66666C4.44497 17.5 4.2279 17.4368 4.04086 17.3178C3.85382 17.1988 3.70455 17.029 3.61054 16.8282C3.51653 16.6275 3.48166 16.4041 3.51001 16.1842C3.53837 15.9643 3.62878 15.7571 3.77066 15.5868L15.4373 1.58678Z" fill="white"/>
</g>
<defs>
<clipPath id="clip0_18_371">
<rect width="28" height="28" fill="white"/>
</clipPath>
</defs>
</svg>
