<svg width="24" height="24" viewBox="0 0 24 24" fill="none" xmlns="http://www.w3.org/2000/svg">
<g clip-path="url(#clip0_2_338)">
<path fill-rule="evenodd" clip-rule="evenodd" d="M12.477 4.54599C12.4017 4.3785 12.3734 4.19364 12.3953 4.01128C12.4171 3.82893 12.4883 3.65599 12.6011 3.51107C12.714 3.36616 12.8642 3.25475 13.0356 3.18883C13.207 3.12292 13.3932 3.10499 13.574 3.13699C15.7916 3.5284 17.7819 4.7369 19.152 6.52397C20.5222 8.31103 21.1726 10.5468 20.975 12.79C20.7773 15.0331 19.7459 17.1207 18.0844 18.6406C16.4228 20.1606 14.2519 21.0024 12 21C7.56603 21 3.88203 17.794 3.13703 13.574C3.10503 13.3931 3.12296 13.207 3.18887 13.0356C3.25478 12.8641 3.36619 12.7139 3.51111 12.6011C3.65603 12.4883 3.82897 12.4171 4.01132 12.3952C4.19368 12.3734 4.37854 12.4016 4.54603 12.477C5.65592 12.9752 6.89106 13.1243 8.08763 12.9044C9.28419 12.6846 10.3857 12.1061 11.2459 11.2459C12.1062 10.3856 12.6846 9.28416 12.9045 8.08759C13.1244 6.89102 12.9753 5.65588 12.477 4.54599ZM14.881 5.61799C15.1033 6.88374 15.0173 8.18441 14.6304 9.40991C14.2436 10.6354 13.5671 11.7497 12.6584 12.6584C11.7497 13.5671 10.6354 14.2435 9.40995 14.6304C8.18445 15.0173 6.88378 15.1032 5.61803 14.881C6.2774 16.3391 7.41636 17.5274 8.84525 18.248C10.2741 18.9685 11.9068 19.1779 13.4712 18.8412C15.0357 18.5045 16.4376 17.6421 17.4436 16.3975C18.4496 15.1529 18.9989 13.6013 19 12.001C19.0003 10.6534 18.6118 9.33436 17.881 8.20214C17.1502 7.06993 16.1092 6.17265 14.881 5.61799ZM5.56503 7.71599L5.62903 7.85599C5.90188 8.41971 6.33133 8.89291 6.86603 9.21899L6.96603 9.27799C6.97642 9.28394 6.98505 9.29253 6.99105 9.30289C6.99706 9.31325 7.00022 9.32502 7.00022 9.33699C7.00022 9.34896 6.99706 9.36072 6.99105 9.37109C6.98505 9.38145 6.97642 9.39004 6.96603 9.39599L6.86603 9.45399C6.33119 9.78034 5.90172 10.2539 5.62903 10.818L5.56503 10.958C5.55948 10.9706 5.55038 10.9813 5.53884 10.9889C5.5273 10.9964 5.51381 11.0004 5.50003 11.0004C5.48624 11.0004 5.47276 10.9964 5.46121 10.9889C5.44967 10.9813 5.44057 10.9706 5.43503 10.958L5.37103 10.818C5.09833 10.2539 4.66887 9.78034 4.13403 9.45399L4.03403 9.39599C4.02364 9.39004 4.015 9.38145 4.009 9.37109C4.003 9.36072 3.99983 9.34896 3.99983 9.33699C3.99983 9.32502 4.003 9.31325 4.009 9.30289C4.015 9.29253 4.02364 9.28394 4.03403 9.27799L4.13403 9.21899C4.6685 8.89249 5.0976 8.41895 5.37003 7.85499L5.43403 7.71499C5.43957 7.70237 5.44867 7.69164 5.46021 7.6841C5.47176 7.67657 5.48524 7.67256 5.49903 7.67256C5.51281 7.67256 5.5263 7.67657 5.53784 7.6841C5.54938 7.69164 5.55848 7.70237 5.56403 7.71499L5.56503 7.71599ZM8.39703 2.85699C8.43703 2.76699 8.56303 2.76699 8.60303 2.85699L8.70503 3.07899C9.13921 3.97733 9.82319 4.73145 10.675 5.25099L10.832 5.34299C10.8489 5.35233 10.863 5.36602 10.8728 5.38264C10.8826 5.39926 10.8877 5.4182 10.8877 5.43749C10.8877 5.45678 10.8826 5.47572 10.8728 5.49234C10.863 5.50896 10.8489 5.52265 10.832 5.53199L10.674 5.62399C9.75157 6.18697 9.0279 7.02391 8.60403 8.01799C8.59521 8.0381 8.58073 8.05521 8.56235 8.06723C8.54397 8.07924 8.52248 8.08564 8.50053 8.08564C8.47857 8.08564 8.45708 8.07924 8.4387 8.06723C8.42032 8.05521 8.40584 8.0381 8.39703 8.01799L8.29503 7.79599C7.86084 6.89765 7.17686 6.14353 6.32503 5.62399L6.16703 5.53199C6.15015 5.52265 6.13607 5.50896 6.12628 5.49234C6.11648 5.47572 6.11131 5.45678 6.11131 5.43749C6.11131 5.4182 6.11648 5.39926 6.12628 5.38264C6.13607 5.36602 6.15015 5.35233 6.16703 5.34299L6.32503 5.25099C7.17686 4.73145 7.86084 3.97733 8.29503 3.07899L8.39703 2.85699Z" fill="#BFBFBF"/>
</g>
<defs>
<clipPath id="clip0_2_338">
<rect width="24" height="24" fill="white"/>
</clipPath>
</defs>
</svg>
