<svg width="25" height="24" viewBox="0 0 25 24" fill="none" xmlns="http://www.w3.org/2000/svg">
<g clip-path="url(#clip0_81_63)">
<path fill-rule="evenodd" clip-rule="evenodd" d="M6.16901 4.76021C6.19582 4.53306 6.2753 4.3153 6.40112 4.12429C6.52695 3.93327 6.69564 3.77428 6.89376 3.65997C7.09188 3.54567 7.31395 3.4792 7.5423 3.46587C7.77064 3.45255 7.99894 3.49273 8.20901 3.58321C9.27101 4.03721 11.651 5.11621 14.671 6.85921C17.692 8.60321 19.817 10.1262 20.74 10.8172C21.528 11.4082 21.53 12.5802 20.741 13.1732C19.827 13.8602 17.728 15.3632 14.671 17.1292C11.611 18.8952 9.25901 19.9612 8.20701 20.4092C7.30101 20.7962 6.28701 20.2092 6.16901 19.2322C6.03101 18.0902 5.77301 15.4972 5.77301 11.9952C5.77301 8.49521 6.03001 5.90321 6.16901 4.76021Z" fill="black"/>
</g>
<defs>
<clipPath id="clip0_81_63">
<rect width="24" height="24" fill="white" transform="translate(0.5)"/>
</clipPath>
</defs>
</svg>
